<?xml version="1.0" encoding="utf-8"?>
<!-- Generator: Adobe Illustrator 16.0.0, SVG Export Plug-In . SVG Version: 6.00 Build 0)  -->
<!DOCTYPE svg PUBLIC "-//W3C//DTD SVG 1.1//EN" "http://www.w3.org/Graphics/SVG/1.1/DTD/svg11.dtd">
<svg version="1.1" id="图层_1" xmlns="http://www.w3.org/2000/svg" xmlns:xlink="http://www.w3.org/1999/xlink" x="0px" y="0px"
	 width="89px" height="19px" viewBox="0 0 89 19" enable-background="new 0 0 89 19" xml:space="preserve">
<path fill="#40A0C3" d="M15.087,4.396c0,0-3.745-2.17-7.054,0c0,0-2.786,2.026-1.539,5.608c0,0-0.796-0.398-1.031-1.375
	c-0.235-0.977,0-1.7,0-1.7s-3.401,2.259-0.725,5.443c0,0-4.503-1.395-4.63-5.552c0,0,0.977-5.968,7.688-6.438
	C7.797,0.379,12.609,0.072,15.087,4.396z"/>
<path fill="#40A0C3" d="M0,8.338c0,0,0.687,2.478,3.582,4.033c0,0,1.357,0.725,3.274,0.777h0.218c0,0,0.271-0.109,0-0.305
	c-0.272-0.201-1.772,0.363-2.877-2.189c0,0-0.271-1.827,0.742-2.624c0,0-0.037,2.153,2.55,2.946c0,0,0.697,0.109,1.268,0.057
	c0.29-0.027,2.243,0.16,4.576,1.918c2.333,1.756,2.727,4.752,2.783,5.984c0,0-1.499-1.391-5.152-2.422c0,0-2.53-0.338-3.166-0.252
	C7.797,16.262,0.364,16.045,0,8.338z"/>
<g>
	<path fill="#FFFFFF" stroke="#FFFFFF" stroke-width="0.25" stroke-miterlimit="10" d="M21.04,12.012
		c-0.288,2.182-0.884,4.041-1.731,5.721l-0.793-0.413c0.775-1.567,1.335-3.338,1.624-5.45L21.04,12.012z M28.581,10.857
		c1.047-0.884,1.984-1.821,2.779-2.831c-0.739-1.425-1.407-2.924-2.04-4.495h-7.36c-0.649,0-1.155,0.562-1.21,1.264l-0.577,6.946
		l-0.9-0.072l0.578-6.947c0.092-1.136,0.992-2.091,2.11-2.091h7.001l-0.38-1.047l0.83-0.306c0.163,0.469,0.325,0.919,0.506,1.354
		h2.418c0.484,0,0.864-0.396,0.883-0.885v-0.36h0.92v0.379c-0.017,0.991-0.794,1.768-1.803,1.768h-2.058
		c0.505,1.263,1.083,2.471,1.678,3.664c0.613-0.867,1.119-1.785,1.552-2.779l0.848,0.378c-0.505,1.172-1.154,2.292-1.913,3.32
		c0.686,1.3,1.426,2.541,2.218,3.75l-0.756,0.504c-0.742-1.115-1.426-2.271-2.076-3.461c-0.795,0.936-1.679,1.823-2.689,2.651
		L28.581,10.857z M21.959,4.852h6.26v0.902h-6.26V4.852z M26.721,6.799c0.813,0,1.462,0.668,1.462,1.462v1.354
		c0,0.797-0.65,1.462-1.462,1.462h-3.283c-0.811,0-1.442-0.665-1.442-1.462V8.259c0-0.793,0.634-1.461,1.442-1.461L26.721,6.799
		L26.721,6.799z M23.438,7.72c-0.305,0-0.54,0.251-0.54,0.539v1.355c0,0.288,0.235,0.537,0.54,0.537h3.283
		c0.308,0,0.562-0.249,0.562-0.537V8.259c0-0.288-0.251-0.539-0.562-0.539H23.438z M30.944,17.625h-6.027
		c-1.155,0-1.929-0.798-1.929-1.805v-3.74h0.901v3.74c0,0.504,0.378,0.899,1.027,0.899h6.027L30.944,17.625L30.944,17.625z
		 M28.039,12.067v3.158h-0.902v-3.158H28.039z M32.641,11.815l1.893,5.701l-0.884,0.27l-1.894-5.719L32.641,11.815z"/>
	<path fill="#FFFFFF" stroke="#FFFFFF" stroke-width="0.25" stroke-miterlimit="10" d="M44.149,9.865H41.19l3.011,6.856
		l-0.848,0.362l-2.705-6.187c-0.359,2.181-1.283,4.531-3.485,6.782l-0.63-0.649c2.311-2.396,3.121-4.889,3.318-7.162h-3.388V8.962
		h3.447c0-0.144,0.017-0.307,0.017-0.467l0.021-4.349h-3.051l0.975-2.904l0.885,0.307l-0.578,1.698h5.739v0.898h-3.069l-0.018,4.349
		c0,0.162-0.021,0.323-0.021,0.47h3.34v0.9H44.149z M47.85,16.867c-1.155,0-2.129-0.919-2.129-2.127V4.418
		c0-1.174,0.974-2.111,2.129-2.111h2.83c1.153,0,2.129,0.938,2.129,2.111v10.319c0,1.208-0.974,2.127-2.129,2.127h-2.83V16.867z
		 M50.683,15.964c0.667,0,1.227-0.526,1.227-1.227V4.418c0-0.668-0.562-1.21-1.227-1.21H47.85c-0.703,0-1.228,0.541-1.228,1.21
		v10.319c0,0.7,0.524,1.227,1.228,1.227H50.683z"/>
	<path fill="#FFFFFF" stroke="#FFFFFF" stroke-width="0.25" stroke-miterlimit="10" d="M54.632,1.999h16.074v0.904H57.952
		l-0.484,3.733h12.029l-0.755,9.6h1.964v0.9H54.632v-0.9h13.205l0.289-3.571H55.767l1.261-9.762h-2.394V1.999H54.632z M57.337,7.536
		l-0.54,4.225h11.398l0.347-4.225H57.337z"/>
	<path fill="#FFFFFF" stroke="#FFFFFF" stroke-width="0.25" stroke-miterlimit="10" d="M79.833,12.985v2.385
		c0,1.156-0.972,2.13-2.129,2.13h-4.777l1.495-9.871h-1.929V6.708h7.483v0.92h-4.635l-1.355,8.967h3.718
		c0.667,0,1.209-0.563,1.209-1.232v-2.378L79.833,12.985L79.833,12.985L79.833,12.985z M79.802,2.847h-7.11v-0.9h7.11V2.847z
		 M84.255,1.188L84.2,3.245h2.614c1.157,0,2.129,0.975,2.129,2.128v10.051c0,1.153-0.976,2.126-2.129,2.126h-2.069v-0.9h2.069
		c0.669,0,1.208-0.558,1.208-1.226V5.374c0-0.668-0.539-1.226-1.208-1.226h-2.648c-0.252,5.718-0.942,9.762-2.597,13.548
		l-0.828-0.378c1.583-3.683,2.252-7.617,2.505-13.174h-2.528V3.246h2.583l0.05-2.094L84.255,1.188z"/>
</g>
</svg>
