<?xml version="1.0" encoding="utf-8"?>
<!-- Generator: Adobe Illustrator 16.0.0, SVG Export Plug-In . SVG Version: 6.00 Build 0)  -->
<!DOCTYPE svg PUBLIC "-//W3C//DTD SVG 1.1//EN" "http://www.w3.org/Graphics/SVG/1.1/DTD/svg11.dtd">
<svg version="1.1" id="图层_1" xmlns="http://www.w3.org/2000/svg" xmlns:xlink="http://www.w3.org/1999/xlink" x="0px" y="0px"
	 width="66px" height="19px" viewBox="0 0 66 19" enable-background="new 0 0 66 19" xml:space="preserve">
<g>
	<path fill="#FFFFFF" stroke="#FFFFFF" stroke-width="0.25" stroke-miterlimit="10" d="M27.757,2.876
		c-0.337-0.022-0.652-0.022-1.011-0.09c-0.897-0.07-1.906-0.179-2.735-0.179c-1.931,0-3.677,0.425-4.398,2.264V4.852
		c-0.472,1.254-0.692,2.867-0.692,4.577c0,1.723,0.247,3.455,0.692,4.68c0.605,1.621,2.423,2.181,4.31,2.181
		c0.896,0,1.723-0.093,2.553-0.248c0-2.18,0.024-4.53,0.024-6.705h1.121l-0.025,7.577c-1.345,0.338-2.579,0.495-3.678,0.495
		c-2.333,0-4.529-0.69-5.358-2.915c-0.47-1.347-0.762-3.187-0.762-5.066c0-1.797,0.248-3.567,0.764-4.937
		c0.963-2.445,3.091-3.008,5.45-3.008c1.05,0,1.948,0.093,2.848,0.179c0.357,0.071,0.649,0.071,0.984,0.091L27.757,2.876z"/>
	<path fill="#FFFFFF" stroke="#FFFFFF" stroke-width="0.25" stroke-miterlimit="10" d="M30.547,6.02
		c1.141-0.205,2.333-0.359,3.431-0.359c2.354,0,4.103,0.74,4.103,3.229c0,2.869-0.023,5.675-0.023,8.523h-1.141v-0.767
		c-0.989,0.45-2.359,0.851-3.548,0.851c-0.744,0-1.434-0.158-1.997-0.585c-0.963-0.721-1.346-1.749-1.346-2.757
		c0-1.571,1.053-3.14,2.468-3.499c1.146-0.251,2.268-0.317,3.141-0.317c0.448,0,0.899,0.026,1.301,0.044V8.889
		c0-1.64-1.256-2.11-2.957-2.11c-0.965,0-2.134,0.18-3.276,0.36L30.547,6.02z M36.914,15.391l0.022-3.879
		c-0.405-0.041-0.828-0.041-1.304-0.041c-0.872,0-1.882,0.063-2.893,0.264c-0.918,0.205-1.595,1.282-1.595,2.423
		c0,0.696,0.291,1.416,0.899,1.885c0.337,0.248,0.809,0.337,1.322,0.337C34.603,16.379,36.105,15.885,36.914,15.391z"/>
	<path fill="#FFFFFF" stroke="#FFFFFF" stroke-width="0.25" stroke-miterlimit="10" d="M47.056,17.339V9.333
		c0-1.863-0.743-2.42-1.639-2.42c-1.144,0-2.582,0.674-3.364,1.101v9.326h-1.122V5.725h1.122v1.031
		c0.901-0.424,2.18-0.989,3.364-0.989c0.897,0,1.704,0.292,2.197,1.123c0.985-0.448,2.489-1.144,3.858-1.144
		c1.611,0,2.889,0.808,2.889,3.588v8.005h-1.12V9.333c0-1.881-0.808-2.444-1.769-2.444c-1.169,0-2.602,0.648-3.432,1.053
		c0.091,0.38,0.132,0.851,0.132,1.39v8.008h-1.117V17.339L47.056,17.339z"/>
	<path fill="#FFFFFF" stroke="#FFFFFF" stroke-width="0.25" stroke-miterlimit="10" d="M65.721,17.119
		c-0.062,0-0.291,0.022-0.49,0.089c-0.991,0.179-2.07,0.382-3.298,0.382c-2.738,0-5.226-1.08-5.11-5.988
		c0.065-2.108,0.578-4.216,1.837-5.115c0.784-0.516,1.836-0.808,2.915-0.808c1.144,0,2.239,0.291,2.983,1.032
		c0.981,0.966,1.521,2.916,1.434,5.36h-8.026c0.019,3.59,1.927,4.396,3.968,4.396c0.964,0,2.11-0.223,3.096-0.379l-0.025,0.021
		l0.605-0.133L65.721,17.119z M57.984,10.927h6.887c-0.063-1.432-0.445-2.779-1.097-3.427c-0.519-0.472-1.326-0.695-2.195-0.695
		c-0.88,0-1.704,0.224-2.246,0.606C58.479,8.014,58.077,9.378,57.984,10.927z"/>
</g>
</svg>
